<svg width="24" height="25" viewBox="0 0 24 25" fill="none" xmlns="http://www.w3.org/2000/svg">
<path d="M9.59698 12.05H11.55C12.6241 12.05 13.6542 12.4767 14.4138 13.2362C15.1733 13.9957 15.6 15.0259 15.6 16.1H9.29908L9.29998 17H16.5V16.1C16.4971 15.1424 16.2205 14.2055 15.7026 13.4H18.3C19.1507 13.3998 19.9841 13.6407 20.7035 14.0948C21.4228 14.549 21.9987 15.1978 22.3644 15.9659C20.2359 18.7748 16.7898 20.6 12.9 20.6C10.4151 20.6 8.30998 20.069 6.59998 19.1375V10.7639C7.69493 10.9207 8.7289 11.3645 9.59698 12.05ZM5.69998 18.8C5.69998 19.0387 5.60515 19.2676 5.43637 19.4364C5.26759 19.6052 5.03867 19.7 4.79998 19.7H2.99998C2.76128 19.7 2.53236 19.6052 2.36358 19.4364C2.1948 19.2676 2.09998 19.0387 2.09998 18.8V10.7C2.09998 10.4613 2.1948 10.2324 2.36358 10.0636C2.53236 9.89482 2.76128 9.8 2.99998 9.8H4.79998C5.03867 9.8 5.26759 9.89482 5.43637 10.0636C5.60515 10.2324 5.69998 10.4613 5.69998 10.7V18.8ZM17.4 6.2C18.1161 6.2 18.8028 6.48446 19.3092 6.99081C19.8155 7.49716 20.1 8.18392 20.1 8.9C20.1 9.61608 19.8155 10.3028 19.3092 10.8092C18.8028 11.3155 18.1161 11.6 17.4 11.6C16.6839 11.6 15.9971 11.3155 15.4908 10.8092C14.9844 10.3028 14.7 9.61608 14.7 8.9C14.7 8.18392 14.9844 7.49716 15.4908 6.99081C15.9971 6.48446 16.6839 6.2 17.4 6.2ZM11.1 3.5C11.8161 3.5 12.5028 3.78446 13.0092 4.29081C13.5155 4.79716 13.8 5.48392 13.8 6.2C13.8 6.91608 13.5155 7.60284 13.0092 8.10919C12.5028 8.61554 11.8161 8.9 11.1 8.9C10.3839 8.9 9.69713 8.61554 9.19079 8.10919C8.68444 7.60284 8.39998 6.91608 8.39998 6.2C8.39998 5.48392 8.68444 4.79716 9.19079 4.29081C9.69713 3.78446 10.3839 3.5 11.1 3.5Z" fill="#0A0D14"/>
</svg>
