<svg width="16" height="15" viewBox="0 0 16 15" fill="none" xmlns="http://www.w3.org/2000/svg">
<path fill-rule="evenodd" clip-rule="evenodd" d="M0.925851 0.425837C1.07819 0.273682 1.2847 0.188218 1.50002 0.188218C1.71533 0.188218 1.92184 0.273682 2.07418 0.425837L8.00002 6.35167L13.9259 0.425837C14.0002 0.346009 14.0899 0.281982 14.1896 0.237574C14.2893 0.193166 14.3969 0.169288 14.506 0.167363C14.615 0.165438 14.7234 0.185506 14.8246 0.22637C14.9258 0.267235 15.0177 0.328058 15.0948 0.405212C15.172 0.482366 15.2328 0.574269 15.2737 0.675439C15.3145 0.77661 15.3346 0.884975 15.3327 0.99407C15.3307 1.10316 15.3069 1.21075 15.2624 1.31042C15.218 1.41009 15.154 1.49979 15.0742 1.57417L9.14835 7.5L15.0742 13.4258C15.154 13.5002 15.218 13.5899 15.2624 13.6896C15.3069 13.7893 15.3307 13.8968 15.3327 14.0059C15.3346 14.115 15.3145 14.2234 15.2737 14.3246C15.2328 14.4257 15.172 14.5176 15.0948 14.5948C15.0177 14.6719 14.9258 14.7328 14.8246 14.7736C14.7234 14.8145 14.615 14.8346 14.506 14.8326C14.3969 14.8307 14.2893 14.8068 14.1896 14.7624C14.0899 14.718 14.0002 14.654 13.9259 14.5742L8.00002 8.64834L2.07418 14.5742C1.92016 14.7177 1.71644 14.7958 1.50595 14.7921C1.29546 14.7884 1.09462 14.7031 0.94576 14.5543C0.796896 14.4054 0.711625 14.2046 0.707911 13.9941C0.704197 13.7836 0.782331 13.5799 0.925851 13.4258L6.85168 7.5L0.925851 1.57417C0.773696 1.42183 0.688232 1.21532 0.688232 1C0.688232 0.78469 0.773696 0.578181 0.925851 0.425837Z" fill="black"/>
</svg>
