<svg width="24" height="25" viewBox="0 0 24 25" fill="none" xmlns="http://www.w3.org/2000/svg">
<path d="M16.83 16.14C17.5 15.7 18.38 16.18 18.38 16.98V18.27C18.38 19.54 17.39 20.9 16.2 21.3L13.01 22.36C12.45 22.55 11.54 22.55 10.99 22.36L7.8 21.3C6.6 20.9 5.62 19.54 5.62 18.27V16.97C5.62 16.18 6.5 15.7 7.16 16.13L9.22 17.47C10.01 18 11.01 18.26 12.01 18.26C13.01 18.26 14.01 18 14.8 17.47L16.83 16.14Z" fill="#292D32"/>
<path d="M19.98 6.96L13.99 3.03C12.91 2.32 11.13 2.32 10.05 3.03L4.03002 6.96C2.10002 8.21 2.10002 11.04 4.03002 12.3L5.63002 13.34L10.05 16.22C11.13 16.93 12.91 16.93 13.99 16.22L18.38 13.34L19.75 12.44V15.5C19.75 15.91 20.09 16.25 20.5 16.25C20.91 16.25 21.25 15.91 21.25 15.5V10.58C21.65 9.29 21.24 7.79 19.98 6.96Z" fill="#292D32"/>
</svg>
