<svg width="24" height="24" viewBox="0 0 24 24" fill="none" xmlns="http://www.w3.org/2000/svg">
<path d="M17.7276 16.8276L12 22.5552L6.27243 16.8276C5.13963 15.6948 4.36819 14.2515 4.05566 12.6803C3.74313 11.109 3.90354 9.48039 4.51661 8.00031C5.12969 6.52023 6.16788 5.25519 7.49992 4.36516C8.83196 3.47512 10.398 3.00007 12 3.00007C13.6021 3.00007 15.1681 3.47512 16.5001 4.36516C17.8322 5.25519 18.8704 6.52023 19.4834 8.00031C20.0965 9.48039 20.2569 11.109 19.9444 12.6803C19.6319 14.2515 18.8604 15.6948 17.7276 16.8276ZM12 12.9C12.4774 12.9 12.9353 12.7104 13.2728 12.3728C13.6104 12.0352 13.8 11.5774 13.8 11.1C13.8 10.6226 13.6104 10.1648 13.2728 9.82721C12.9353 9.48964 12.4774 9.3 12 9.3C11.5226 9.3 11.0648 9.48964 10.7272 9.82721C10.3897 10.1648 10.2 10.6226 10.2 11.1C10.2 11.5774 10.3897 12.0352 10.7272 12.3728C11.0648 12.7104 11.5226 12.9 12 12.9Z" fill="#38C793"/>
</svg>
