<svg width="14" height="15" viewBox="0 0 14 15" fill="none" xmlns="http://www.w3.org/2000/svg">
<path d="M2.84375 6.625H0.65625C0.293809 6.625 0 6.91881 0 7.28125V13.8438C0 14.2062 0.293809 14.5 0.65625 14.5H2.84375C3.20619 14.5 3.5 14.2062 3.5 13.8438V7.28125C3.5 6.91881 3.20619 6.625 2.84375 6.625ZM1.75 13.4063C1.38756 13.4063 1.09375 13.1124 1.09375 12.75C1.09375 12.3876 1.38756 12.0938 1.75 12.0938C2.11244 12.0938 2.40625 12.3876 2.40625 12.75C2.40625 13.1124 2.11244 13.4063 1.75 13.4063ZM10.5 2.7272C10.5 3.88701 9.78989 4.53758 9.59009 5.3125H12.3716C13.2848 5.3125 13.9957 6.07118 14 6.90112C14.0023 7.39161 13.7936 7.91965 13.4684 8.24635L13.4654 8.24936C13.7344 8.88748 13.6907 9.78162 13.2109 10.4223C13.4483 11.1304 13.209 12.0002 12.763 12.4665C12.8805 12.9477 12.8243 13.3572 12.5949 13.6869C12.0368 14.4887 10.6536 14.5 9.48388 14.5L9.40609 14.5C8.08574 14.4995 7.00515 14.0188 6.13687 13.6325C5.70055 13.4384 5.13005 13.1981 4.69719 13.1901C4.51837 13.1868 4.375 13.0409 4.375 12.8621V7.01678C4.375 6.92928 4.41006 6.84531 4.47229 6.78379C5.55549 5.71344 6.02126 4.58023 6.90909 3.6909C7.31388 3.28534 7.4611 2.67273 7.60343 2.0803C7.72502 1.57441 7.97938 0.499996 8.53126 0.499996C9.18751 0.499996 10.5 0.718746 10.5 2.7272Z" fill="#38C793"/>
</svg>
