<svg width="24" height="25" viewBox="0 0 24 25" fill="none" xmlns="http://www.w3.org/2000/svg">
<path d="M2.09998 21.5C2.09998 19.5904 2.85855 17.7591 4.20881 16.4088C5.55907 15.0586 7.39042 14.3 9.29998 14.3C11.2095 14.3 13.0409 15.0586 14.3911 16.4088C15.7414 17.7591 16.5 19.5904 16.5 21.5H2.09998ZM9.29998 13.4C6.31648 13.4 3.89998 10.9835 3.89998 8C3.89998 5.0165 6.31648 2.6 9.29998 2.6C12.2835 2.6 14.7 5.0165 14.7 8C14.7 10.9835 12.2835 13.4 9.29998 13.4ZM17.6214 4.5656C18.0709 5.65474 18.3015 6.82175 18.3 8C18.3015 9.17825 18.0709 10.3453 17.6214 11.4344L16.1121 10.3364C16.3696 9.58439 16.5007 8.79489 16.5 8C16.501 7.20516 16.3702 6.41566 16.113 5.6636L17.6214 4.5656ZM20.5932 2.4056C21.4556 4.14424 21.9029 6.05923 21.9 8C21.9 10.0097 21.4293 11.9096 20.5932 13.5944L19.1127 12.518C19.7654 11.1014 20.1022 9.55976 20.1 8C20.1 6.3872 19.7463 4.8563 19.1127 3.482L20.5932 2.4056Z" fill="#0A0D14"/>
</svg>
