<svg width="24" height="25" viewBox="0 0 24 25" fill="none" xmlns="http://www.w3.org/2000/svg">
<path d="M15.8001 2.71C15.3901 2.3 14.6801 2.58 14.6801 3.15V6.64C14.6801 8.1 15.9201 9.31 17.4301 9.31C18.3801 9.32 19.7001 9.32 20.8301 9.32C21.4001 9.32 21.7001 8.65 21.3001 8.25C19.8601 6.8 17.2801 4.19 15.8001 2.71Z" fill="#292D32"/>
<path d="M20.5 10.69H17.61C15.24 10.69 13.31 8.76 13.31 6.39V3.5C13.31 2.95 12.86 2.5 12.31 2.5H8.07C4.99 2.5 2.5 4.5 2.5 8.07V16.93C2.5 20.5 4.99 22.5 8.07 22.5H15.93C19.01 22.5 21.5 20.5 21.5 16.93V11.69C21.5 11.14 21.05 10.69 20.5 10.69ZM11.5 18.25H7.5C7.09 18.25 6.75 17.91 6.75 17.5C6.75 17.09 7.09 16.75 7.5 16.75H11.5C11.91 16.75 12.25 17.09 12.25 17.5C12.25 17.91 11.91 18.25 11.5 18.25ZM13.5 14.25H7.5C7.09 14.25 6.75 13.91 6.75 13.5C6.75 13.09 7.09 12.75 7.5 12.75H13.5C13.91 12.75 14.25 13.09 14.25 13.5C14.25 13.91 13.91 14.25 13.5 14.25Z" fill="#292D32"/>
</svg>
