<svg width="24" height="25" viewBox="0 0 24 25" fill="none" xmlns="http://www.w3.org/2000/svg">
<path d="M6.6 9.8H19.1442L19.5942 8H8.4V6.2H20.748C20.8848 6.2 21.0198 6.23119 21.1428 6.2912C21.2657 6.35121 21.3733 6.43846 21.4575 6.54631C21.5417 6.65416 21.6001 6.77978 21.6285 6.91362C21.6568 7.04746 21.6542 7.186 21.621 7.3187L19.371 16.3187C19.3222 16.5133 19.2099 16.6861 19.0517 16.8095C18.8935 16.9329 18.6986 17 18.498 17H5.7C5.46131 17 5.23239 16.9052 5.0636 16.7364C4.89482 16.5676 4.8 16.3387 4.8 16.1V5.3H3V3.5H5.7C5.93869 3.5 6.16761 3.59482 6.3364 3.7636C6.50518 3.93239 6.6 4.16131 6.6 4.4V9.8ZM6.6 22.4C6.12261 22.4 5.66477 22.2104 5.32721 21.8728C4.98964 21.5352 4.8 21.0774 4.8 20.6C4.8 20.1226 4.98964 19.6648 5.32721 19.3272C5.66477 18.9896 6.12261 18.8 6.6 18.8C7.07739 18.8 7.53523 18.9896 7.87279 19.3272C8.21036 19.6648 8.4 20.1226 8.4 20.6C8.4 21.0774 8.21036 21.5352 7.87279 21.8728C7.53523 22.2104 7.07739 22.4 6.6 22.4ZM17.4 22.4C16.9226 22.4 16.4648 22.2104 16.1272 21.8728C15.7896 21.5352 15.6 21.0774 15.6 20.6C15.6 20.1226 15.7896 19.6648 16.1272 19.3272C16.4648 18.9896 16.9226 18.8 17.4 18.8C17.8774 18.8 18.3352 18.9896 18.6728 19.3272C19.0104 19.6648 19.2 20.1226 19.2 20.6C19.2 21.0774 19.0104 21.5352 18.6728 21.8728C18.3352 22.2104 17.8774 22.4 17.4 22.4Z" fill="#0A0D14"/>
</svg>
